<?xml version="1.0" encoding="UTF-8"?>
<svg width="42px" height="42px" viewBox="0 0 42 42" version="1.1" xmlns="http://www.w3.org/2000/svg" xmlns:xlink="http://www.w3.org/1999/xlink">
    <!-- Generator: Sketch 54.1 (76490) - https://sketchapp.com -->
    <title>Untitled</title>
    <desc>Created with Sketch.</desc>
    <defs>
        <path d="M7.6916556,-3.10752092e-16 L34.3083444,3.10752092e-16 C36.9829006,-1.80555915e-16 37.9527593,0.278476833 38.9305371,0.801398111 C39.9083149,1.32431939 40.6756806,2.09168511 41.1986019,3.06946289 C41.7215232,4.04724067 42,5.01709938 42,7.6916556 L42,34.3083444 C42,36.9829006 41.7215232,37.9527593 41.1986019,38.9305371 C40.6756806,39.9083149 39.9083149,40.6756806 38.9305371,41.1986019 C37.9527593,41.7215232 36.9829006,42 34.3083444,42 L7.6916556,42 C5.01709938,42 4.04724067,41.7215232 3.06946289,41.1986019 C2.09168511,40.6756806 1.32431939,39.9083149 0.801398111,38.9305371 C0.278476833,37.9527593 1.2037061e-16,36.9829006 -2.07168062e-16,34.3083444 L2.07168062e-16,7.6916556 C-1.2037061e-16,5.01709938 0.278476833,4.04724067 0.801398111,3.06946289 C1.32431939,2.09168511 2.09168511,1.32431939 3.06946289,0.801398111 C4.04724067,0.278476833 5.01709938,1.80555915e-16 7.6916556,-3.10752092e-16 Z" id="path-1"></path>
    </defs>
    <g id="Page-1" stroke="none" stroke-width="1" fill="none" fill-rule="evenodd">
        <g id="_Icon-Button">
            <g id="Shape-/-Button-/-Fill-/-Basic---Radius:-6">
                <g id="Fill" fill="#000000" fill-opacity="0.7">
                    <path d="M7.6916556,-3.10752092e-16 L34.3083444,3.10752092e-16 C36.9829006,-1.80555915e-16 37.9527593,0.278476833 38.9305371,0.801398111 C39.9083149,1.32431939 40.6756806,2.09168511 41.1986019,3.06946289 C41.7215232,4.04724067 42,5.01709938 42,7.6916556 L42,34.3083444 C42,36.9829006 41.7215232,37.9527593 41.1986019,38.9305371 C40.6756806,39.9083149 39.9083149,40.6756806 38.9305371,41.1986019 C37.9527593,41.7215232 36.9829006,42 34.3083444,42 L7.6916556,42 C5.01709938,42 4.04724067,41.7215232 3.06946289,41.1986019 C2.09168511,40.6756806 1.32431939,39.9083149 0.801398111,38.9305371 C0.278476833,37.9527593 1.2037061e-16,36.9829006 -2.07168062e-16,34.3083444 L2.07168062e-16,7.6916556 C-1.2037061e-16,5.01709938 0.278476833,4.04724067 0.801398111,3.06946289 C1.32431939,2.09168511 2.09168511,1.32431939 3.06946289,0.801398111 C4.04724067,0.278476833 5.01709938,1.80555915e-16 7.6916556,-3.10752092e-16 Z" id="path-1"></path>
                </g>
                <g id="State-Clipped">
                    <mask id="mask-2" fill="white">
                        <use xlink:href="#path-1"></use>
                    </mask>
                    <g id="path-1"></g>
                    <rect id="State" fill-opacity="0" fill="#FFFFFF" mask="url(#mask-2)" x="0" y="0" width="42" height="42"></rect>
                </g>
            </g>
            <g id="Icon-/-Open-in-view" transform="translate(11.000000, 11.000000)" fill="#FFFFFF">
                <g id="↳Color">
                    <path d="M17.5092883,17.75 L17.5092883,15.2222222 C17.5092883,14.6699375 17.9570036,14.2222222 18.5092883,14.2222222 L19,14.2222222 C19.5522847,14.2222222 20,14.6699375 20,15.2222222 L20,20 L0,20 L0,0 L4.77777778,0 C5.33006253,0 5.77777778,0.44771525 5.77777778,1 L5.77777778,1.5097668 C5.77777778,2.06205155 5.33006253,2.5097668 4.77777778,2.5097668 L2.25,2.5097668 L2.25,17.75 L17.5092883,17.75 Z M20,0.4 L20,7.79197246 C20,8.566905 19.5256177,9.2170293 18.7506852,9.2170293 C17.9362635,9.2036505 17.5071208,8.5831186 17.5092883,7.79197246 L17.5092883,4.56830922 L10.353351,11.5962288 C9.8149894,12.1345904 8.9421328,12.1345904 8.4037712,11.5962288 C7.8654096,11.0578672 7.8654096,10.1850106 8.4037712,9.646649 L15.4127347,2.5097668 L12.1840541,2.5097668 C11.408724,2.50765419 10.820702,2.03425251 10.820702,1.25891951 C10.820702,0.48420403 11.4093386,0 12.1840541,0 L19.6,0 C19.8209139,0 20,0.1790861 20,0.4 Z" id="path-3"></path>
                </g>
            </g>
        </g>
    </g>
</svg>