<?xml version="1.0" encoding="UTF-8"?>
<svg width="20px" height="18px" viewBox="0 0 20 18" version="1.1" xmlns="http://www.w3.org/2000/svg" xmlns:xlink="http://www.w3.org/1999/xlink">
    <!-- Generator: Sketch 56.3 (81716) - https://sketch.com -->
    <title>↳Color</title>
    <desc>Created with Sketch.</desc>
    <defs>
        <path d="M2.8,10.7078313 L21.2,10.7078313 C21.6418278,10.7078313 22,11.0660035 22,11.5078313 L22,12.4921687 C22,12.9339965 21.6418278,13.2921687 21.2,13.2921687 L2.8,13.2921687 C2.3581722,13.2921687 2,12.9339965 2,12.4921687 L2,11.5078313 C2,11.0660035 2.3581722,10.7078313 2.8,10.7078313 Z M2.8,17.6656627 L21.2,17.6656627 C21.6418278,17.6656627 22,18.0238349 22,18.4656627 L22,19.45 C22,19.8918278 21.6418278,20.25 21.2,20.25 L2.8,20.25 C2.3581722,20.25 2,19.8918278 2,19.45 L2,18.4656627 C2,18.0238349 2.3581722,17.6656627 2.8,17.6656627 Z M2.8,3.75 L21.2,3.75 C21.6418278,3.75 22,4.1081722 22,4.55 L22,5.53433735 C22,5.97616515 21.6418278,6.33433735 21.2,6.33433735 L2.8,6.33433735 C2.3581722,6.33433735 2,5.97616515 2,5.53433735 L2,4.55 C2,4.1081722 2.3581722,3.75 2.8,3.75 Z" id="path-1"></path>
    </defs>
    <g id="Symbols" stroke="none" stroke-width="1" fill="white" fill-rule="evenodd">
        <g id="Icon-/-Menu" transform="translate(-2.000000, -3.000000)">
            <mask id="mask-2" fill="white">
                <use xlink:href="#path-1"></use>
            </mask>
            <use id="↳Color" fill="white" xlink:href="#path-1"></use>
        </g>
    </g>
</svg>